<?xml version="1.0" encoding="UTF-8" standalone="no" ?>
<!DOCTYPE svg PUBLIC "-//W3C//DTD SVG 1.1//EN" "http://www.w3.org/Graphics/SVG/1.1/DTD/svg11.dtd">
<svg xmlns="http://www.w3.org/2000/svg" xmlns:xlink="http://www.w3.org/1999/xlink" version="1.1" width="377.59265625000006" height="220.28480000000002" xml:space="preserve">
<desc>Created with Fabric.js 1.6.0-rc.1</desc>
<defs></defs>
<g style="stroke: none; stroke-width: 1; stroke-dasharray: none; stroke-linecap: butt; stroke-linejoin: miter; stroke-miterlimit: 10; fill: none; fill-rule: nonzero; opacity: 1;" transform="translate(10 10) scale(0.37 0.29)" >
  <circle cx="254" cy="254" r="254" style="stroke: none; stroke-width: 1; stroke-dasharray: none; stroke-linecap: butt; stroke-linejoin: miter; stroke-miterlimit: 10; fill: #000000; fill-rule: nonzero; opacity: 0;" transform="  matrix(1 0 0 1 0 0) "/>
  <path d="M 402.8 139.2 H 105.2 c -3.2 0 -6 2.8 -6 6 l -9.6 212 c 0 3.6 2.4 6.8 6 6.8 h 132.8 c 0.4 7.2 11.6 12.8 25.6 12.8 s 25.2 -5.6 25.6 -12.8 h 132.8 c 3.6 0 6 -3.2 6 -6.8 l -9.6 -212 C 408.8 141.6 406 139.2 402.8 139.2 z" style="stroke: none; stroke-width: 1; stroke-dasharray: none; stroke-linecap: butt; stroke-linejoin: miter; stroke-miterlimit: 10; fill: #324A5E; fill-rule: nonzero; opacity: 1;" transform=" matrix(1 0 0 1 0 0) " stroke-linecap="round" />
  <path d="M 400 341.2 c -47.6 -18 -99.2 -18 -146 0 c 0 -74 0 -144.8 0 -212.8 c 44.4 -16 92.8 -16 137.6 0 C 394.4 196.4 397.2 267.2 400 341.2 z" style="stroke: none; stroke-width: 1; stroke-dasharray: none; stroke-linecap: butt; stroke-linejoin: miter; stroke-miterlimit: 10; fill: #fffff5; fill-rule: nonzero; opacity: 1;" transform=" matrix(1 0 0 1 0 0) " stroke-linecap="round" />
  <path d="M 376.8 156 c -35.2 -9.6 -72 -9.6 -107.2 0 c 0 -3.2 0 -6.4 0 -9.6 c 34.8 -9.6 71.6 -9.6 106.8 0 C 376.4 149.6 376.8 152.8 376.8 156 z" style="stroke: none; stroke-width: 1; stroke-dasharray: none; stroke-linecap: butt; stroke-linejoin: miter; stroke-miterlimit: 10; fill: #3ddbb1; fill-rule: nonzero; opacity: 1;" transform=" matrix(1 0 0 1 0 0) " stroke-linecap="round" />
  <path d="M 378 192 c -35.6 -9.6 -72.8 -9.6 -108 0 c 0 -3.2 0 -6.4 0 -9.6 c 35.2 -9.6 72.4 -9.6 108 0 C 378 185.2 378 188.8 378 192 z" style="stroke: none; stroke-width: 1; stroke-dasharray: none; stroke-linecap: butt; stroke-linejoin: miter; stroke-miterlimit: 10; fill: #3ddbb1; fill-rule: nonzero; opacity: 1;" transform=" matrix(1 0 0 1 0 0) " stroke-linecap="round" />
  <path d="M 379.2 228.8 c -36 -10 -73.6 -10 -109.2 0 c 0 -3.2 0 -6.8 0 -10 c 35.6 -10 73.2 -10 108.8 0 C 379.2 222 379.2 225.2 379.2 228.8 z" style="stroke: none; stroke-width: 1; stroke-dasharray: none; stroke-linecap: butt; stroke-linejoin: miter; stroke-miterlimit: 10; fill: #3ddbb1; fill-rule: nonzero; opacity: 1;" transform=" matrix(1 0 0 1 0 0) " stroke-linecap="round" />
  <path d="M 380.8 266.4 c -36.4 -10 -74.4 -10 -110.4 0 c 0 -3.6 0 -6.8 0 -10 c 36 -10 73.6 -10 110 0 C 380.4 259.6 380.4 262.8 380.8 266.4 z" style="stroke: none; stroke-width: 1; stroke-dasharray: none; stroke-linecap: butt; stroke-linejoin: miter; stroke-miterlimit: 10; fill: #3ddbb1; fill-rule: nonzero; opacity: 1;" transform=" matrix(1 0 0 1 0 0) " stroke-linecap="round" />
  <path d="M 382 304.8 c -36.8 -10.4 -75.2 -10.4 -111.6 0 c 0 -3.6 0 -6.8 0 -10.4 c 36.4 -10.4 74.4 -10.4 111.2 0 C 381.6 297.6 382 301.2 382 304.8 z" style="stroke: none; stroke-width: 1; stroke-dasharray: none; stroke-linecap: butt; stroke-linejoin: miter; stroke-miterlimit: 10; fill: #3ddbb1; fill-rule: nonzero; opacity: 1;" transform=" matrix(1 0 0 1 0 0) " stroke-linecap="round" />
  <path d="M 254 341.2 c -46.8 -18 -98.4 -18 -146 0 c 2.8 -74 5.6 -144.8 8.4 -212.8 c 44.8 -16 93.2 -16 137.6 0 C 254 196.4 254 267.2 254 341.2 z" style="stroke: none; stroke-width: 1; stroke-dasharray: none; stroke-linecap: butt; stroke-linejoin: miter; stroke-miterlimit: 10; fill: #3ddbb1; fill-rule: nonzero; opacity: 1;" transform=" matrix(1 0 0 1 0 0) " stroke-linecap="round" />
  <path d="M 238 156 c -34.8 -9.6 -71.6 -9.6 -107.2 0 c 0 -3.2 0.4 -6.4 0.4 -9.6 c 35.2 -9.6 72 -9.6 106.8 0 C 238 149.6 238 152.8 238 156 z" style="stroke: none; stroke-width: 1; stroke-dasharray: none; stroke-linecap: butt; stroke-linejoin: miter; stroke-miterlimit: 10; fill: #CED5E0; fill-rule: nonzero; opacity: 1;" transform=" matrix(1 0 0 1 0 0) " stroke-linecap="round" />
  <path d="M 238 192 c -35.2 -9.6 -72.4 -9.6 -108 0 c 0 -3.2 0.4 -6.4 0.4 -9.6 c 35.6 -9.6 72.8 -9.6 108 0 C 238 185.2 238 188.8 238 192 z" style="stroke: none; stroke-width: 1; stroke-dasharray: none; stroke-linecap: butt; stroke-linejoin: miter; stroke-miterlimit: 10; fill: #CED5E0; fill-rule: nonzero; opacity: 1;" transform=" matrix(1 0 0 1 0 0) " stroke-linecap="round" />
  <path d="M 237.6 228.8 c -35.6 -10 -73.2 -10 -109.2 0 c 0 -3.2 0.4 -6.8 0.4 -10 c 36 -10 73.6 -10 108.8 0 C 237.6 222 237.6 225.2 237.6 228.8 z" style="stroke: none; stroke-width: 1; stroke-dasharray: none; stroke-linecap: butt; stroke-linejoin: miter; stroke-miterlimit: 10; fill: #CED5E0; fill-rule: nonzero; opacity: 1;" transform=" matrix(1 0 0 1 0 0) " stroke-linecap="round" />
  <path d="M 237.6 266.4 c -36 -10 -74 -10 -110.4 0 c 0 -3.6 0.4 -6.8 0.4 -10 c 36.4 -10 74 -10 110 0 C 237.6 259.6 237.6 262.8 237.6 266.4 z" style="stroke: none; stroke-width: 1; stroke-dasharray: none; stroke-linecap: butt; stroke-linejoin: miter; stroke-miterlimit: 10; fill: #CED5E0; fill-rule: nonzero; opacity: 1;" transform=" matrix(1 0 0 1 0 0) " stroke-linecap="round" />
  <path d="M 237.6 304.8 c -36.4 -10.4 -74.8 -10.4 -111.6 0 c 0 -3.6 0.4 -6.8 0.4 -10.4 c 36.8 -10.4 74.8 -10.4 111.2 0 C 237.6 297.6 237.6 301.2 237.6 304.8 z" style="stroke: none; stroke-width: 1; stroke-dasharray: none; stroke-linecap: butt; stroke-linejoin: miter; stroke-miterlimit: 10; fill: #CED5E0; fill-rule: nonzero; opacity: 1;" transform=" matrix(1 0 0 1 0 0) " stroke-linecap="round" />
</g>
<g style="stroke: none; stroke-width: 1; stroke-dasharray: none; stroke-linecap: butt; stroke-linejoin: miter; stroke-miterlimit: 10; fill: none; fill-rule: nonzero; opacity: 1;" transform="translate(74.19000000000005 84.44999999999997) rotate(283.25) scale(0.31 0.28)" >
  <rect x="167.43" y="-36.2" rx="0" ry="0" width="113.14" height="520.41" style="stroke: none; stroke-width: 1; stroke-dasharray: none; stroke-linecap: butt; stroke-linejoin: miter; stroke-miterlimit: 10; fill: #FBD462; fill-rule: nonzero; opacity: 0;" transform=" matrix(0.7071 0.7071 -0.7071 0.7071 224.0039 -92.7807) "/>
  <rect x="179.04" y="-64.21" rx="0" ry="0" width="33.94" height="520.42" style="stroke: none; stroke-width: 1; stroke-dasharray: none; stroke-linecap: butt; stroke-linejoin: miter; stroke-miterlimit: 10; fill: #FFBF5C; fill-rule: nonzero; opacity: 0;" transform=" matrix(0.7071 0.7071 -0.7071 0.7071 196.0037 -81.194) "/>
  <rect x="395.04" y="80.69" rx="0" ry="0" width="33.94" height="22.63" style="stroke: none; stroke-width: 1; stroke-dasharray: none; stroke-linecap: butt; stroke-linejoin: miter; stroke-miterlimit: 10; fill: #DE8843; fill-rule: nonzero; opacity: 0;" transform=" matrix(-0.7071 -0.7071 0.7071 -0.7071 638.2821 448.3875) "/>
  <rect x="289.37" y="172.69" rx="0" ry="0" width="45.26" height="22.63" style="stroke: none; stroke-width: 1; stroke-dasharray: none; stroke-linecap: butt; stroke-linejoin: miter; stroke-miterlimit: 10; fill: #DE8843; fill-rule: nonzero; opacity: 0;" transform=" matrix(-0.7071 -0.7071 0.7071 -0.7071 402.5095 534.733) "/>
  <rect x="340.69" y="148.69" rx="0" ry="0" width="22.63" height="22.63" style="stroke: none; stroke-width: 1; stroke-dasharray: none; stroke-linecap: butt; stroke-linejoin: miter; stroke-miterlimit: 10; fill: #DE8843; fill-rule: nonzero; opacity: 0;" transform=" matrix(-0.7071 -0.7071 0.7071 -0.7071 487.7789 522.0449) "/>
  <rect x="372.69" y="116.69" rx="0" ry="0" width="22.63" height="22.63" style="stroke: none; stroke-width: 1; stroke-dasharray: none; stroke-linecap: butt; stroke-linejoin: miter; stroke-miterlimit: 10; fill: #DE8843; fill-rule: nonzero; opacity: 0;" transform=" matrix(-0.7071 -0.7071 0.7071 -0.7071 565.0241 490.041) "/>
  <rect x="161.38" y="300.69" rx="0" ry="0" width="45.26" height="22.63" style="stroke: none; stroke-width: 1; stroke-dasharray: none; stroke-linecap: butt; stroke-linejoin: miter; stroke-miterlimit: 10; fill: #DE8843; fill-rule: nonzero; opacity: 0;" transform=" matrix(-0.7071 -0.7071 0.7071 -0.7071 93.4973 662.7292) "/>
  <rect x="65.38" y="396.69" rx="0" ry="0" width="45.25" height="22.63" style="stroke: none; stroke-width: 1; stroke-dasharray: none; stroke-linecap: butt; stroke-linejoin: miter; stroke-miterlimit: 10; fill: #DE8843; fill-rule: nonzero; opacity: 0;" transform=" matrix(-0.7071 -0.7071 0.7071 -0.7071 -138.2622 758.731) "/>
  <rect x="116.69" y="372.69" rx="0" ry="0" width="22.63" height="22.63" style="stroke: none; stroke-width: 1; stroke-dasharray: none; stroke-linecap: butt; stroke-linejoin: miter; stroke-miterlimit: 10; fill: #DE8843; fill-rule: nonzero; opacity: 0;" transform=" matrix(-0.7071 -0.7071 0.7071 -0.7071 -53.0074 746.0452) "/>
  <rect x="148.69" y="340.69" rx="0" ry="0" width="22.63" height="22.63" style="stroke: none; stroke-width: 1; stroke-dasharray: none; stroke-linecap: butt; stroke-linejoin: miter; stroke-miterlimit: 10; fill: #DE8843; fill-rule: nonzero; opacity: 0;" transform=" matrix(-0.7071 -0.7071 0.7071 -0.7071 24.2386 714.0396) "/>
  <rect x="183.43" y="2.42" rx="0" ry="0" width="113.14" height="475.17" style="stroke: none; stroke-width: 1; stroke-dasharray: none; stroke-linecap: butt; stroke-linejoin: miter; stroke-miterlimit: 10; fill: #F05F50; fill-rule: nonzero; opacity: 1;" transform=" matrix(0.7071 -0.7071 0.7071 0.7071 -99.412 239.9981) "/>
  <rect x="251.03" y="-25.58" rx="0" ry="0" width="33.94" height="475.17" style="stroke: none; stroke-width: 1; stroke-dasharray: none; stroke-linecap: butt; stroke-linejoin: miter; stroke-miterlimit: 10; fill: #F05F50; fill-rule: nonzero; opacity: 1;" transform=" matrix(-0.7071 0.7071 -0.7071 -0.7071 607.4155 172.4016) "/>
  <rect x="195.03" y="30.41" rx="0" ry="0" width="33.94" height="475.17" style="stroke: none; stroke-width: 1; stroke-dasharray: none; stroke-linecap: butt; stroke-linejoin: miter; stroke-miterlimit: 10; fill: #db663b; fill-rule: nonzero; opacity: 1;" transform=" matrix(-0.7071 0.7071 -0.7071 -0.7071 551.4138 307.59) "/>
  <rect x="217.38" y="2.42" rx="0" ry="0" width="45.26" height="475.17" style="stroke: none; stroke-width: 1; stroke-dasharray: none; stroke-linecap: butt; stroke-linejoin: miter; stroke-miterlimit: 10; fill: #3ddbb1; fill-rule: nonzero; opacity: 1;" transform=" matrix(0.7071 -0.7071 0.7071 0.7071 -99.4094 240.0058) "/>
  <polygon points="32.01,112 112,32 32.01,8 8.01,32 " style="stroke: none; stroke-width: 1; stroke-dasharray: none; stroke-linecap: butt; stroke-linejoin: miter; stroke-miterlimit: 10; fill: #EBF0F2; fill-rule: nonzero; opacity: 1;" transform="  matrix(1 0 0 1 0 0) "/>
  <polygon points="8.01,32 32.01,8 0.01,0 " style="stroke: none; stroke-width: 1; stroke-dasharray: none; stroke-linecap: butt; stroke-linejoin: miter; stroke-miterlimit: 10; fill: #828586; fill-rule: nonzero; opacity: 1;" transform="  matrix(1 0 0 1 0 0) "/>
</g>
  <g transform="translate(268.07 70.5) scale(1.48 2.04)">
   <text font-family="Chunky" font-size="40" font-weight="normal" style="stroke: none; stroke-width: 1; stroke-dasharray: none; stroke-linecap: butt; stroke-linejoin: miter; stroke-miterlimit: 10; fill: #dbb239; fill-rule: nonzero; opacity: 1;" ><tspan x="-67.74" y="8.98" style="stroke: none; stroke-width: 0; stroke-dasharray: none; stroke-linecap: butt; stroke-linejoin: miter; stroke-miterlimit: 4; fill: #dbb239; fill-rule: ; opacity: 1;">C</tspan><tspan x="-41.06" y="8.98" style="stroke: none; stroke-width: 0; stroke-dasharray: none; stroke-linecap: butt; stroke-linejoin: miter; stroke-miterlimit: 4; fill: #dbb239; fill-rule: ; opacity: 1;">r</tspan><tspan x="-27.74" y="8.98" style="stroke: none; stroke-width: 0; stroke-dasharray: none; stroke-linecap: butt; stroke-linejoin: miter; stroke-miterlimit: 4; fill: #dbb239; fill-rule: ; opacity: 1;">e</tspan><tspan x="-9.99" y="8.98" style="stroke: none; stroke-width: 0; stroke-dasharray: none; stroke-linecap: butt; stroke-linejoin: miter; stroke-miterlimit: 4; fill: #dbb239; fill-rule: ; opacity: 1;">a</tspan><tspan x="7.76" y="8.98" style="stroke: none; stroke-width: 0; stroke-dasharray: none; stroke-linecap: butt; stroke-linejoin: miter; stroke-miterlimit: 4; fill: #dbb239; fill-rule: ; opacity: 1;">t</tspan><tspan x="18.88" y="8.98" style="stroke: none; stroke-width: 0; stroke-dasharray: none; stroke-linecap: butt; stroke-linejoin: miter; stroke-miterlimit: 4; fill: #dbb239; fill-rule: ; opacity: 1;">i</tspan><tspan x="29.99" y="8.98" style="stroke: none; stroke-width: 0; stroke-dasharray: none; stroke-linecap: butt; stroke-linejoin: miter; stroke-miterlimit: 4; fill: #dbb239; fill-rule: ; opacity: 1;">v</tspan><tspan x="49.99" y="8.98" style="stroke: none; stroke-width: 0; stroke-dasharray: none; stroke-linecap: butt; stroke-linejoin: miter; stroke-miterlimit: 4; fill: #dbb239; fill-rule: ; opacity: 1;">e</tspan></text>
 </g>
</svg>